<?xml version="1.0" standalone="no"?>
<!DOCTYPE svg PUBLIC "-//W3C//DTD SVG 20010904//EN"
 "http://www.w3.org/TR/2001/REC-SVG-20010904/DTD/svg10.dtd">
<svg version="1.0" xmlns="http://www.w3.org/2000/svg"
 width="472.000000pt" height="472.000000pt" viewBox="0 0 472.000000 472.000000"
 preserveAspectRatio="xMidYMid meet">
<metadata>
Created by potrace 1.11, written by Peter Selinger 2001-2013
</metadata>
<g transform="translate(0.000000,472.000000) scale(0.100000,-0.100000)"
fill="#000000" stroke="none">
<path d="M22 4704 c-22 -15 -22 -17 -22 -288 0 -219 3 -276 14 -292 14 -19 50
-19 2342 -19 2296 0 2328 0 2346 19 16 18 18 43 18 292 l0 272 -25 16 c-22 15
-225 16 -2337 16 -2078 0 -2316 -2 -2336 -16z"/>
<path d="M18 4018 c-16 -16 -18 -42 -18 -292 0 -273 0 -275 22 -290 34 -24
4642 -24 4676 0 22 15 22 17 22 288 0 219 -3 276 -14 292 -14 19 -50 19 -2342
19 -2226 1 -2329 0 -2346 -17z"/>
<path d="M37 3332 c-15 -16 -17 -51 -17 -289 0 -257 1 -271 20 -288 19 -17 52
-18 535 -18 484 0 516 1 535 18 19 17 20 30 20 286 0 260 -3 304 -20 294 -5
-3 -11 -1 -15 5 -4 7 -184 10 -524 10 -489 0 -519 -1 -534 -18z"/>
<path d="M1232 3334 c-22 -15 -22 -17 -22 -287 1 -209 4 -276 14 -289 7 -10
16 -15 19 -11 4 3 7 2 7 -3 0 -8 966 -11 1000 -3 37 9 39 28 40 306 0 270 0
272 -22 287 -20 14 -86 16 -518 16 -432 0 -498 -2 -518 -16z"/>
<path d="M2392 3334 c-22 -15 -22 -17 -22 -287 1 -222 3 -276 15 -291 14 -19
33 -19 520 -19 474 0 506 1 525 18 19 17 20 31 20 286 0 260 -3 304 -20 294
-5 -3 -11 -1 -15 5 -4 7 -177 10 -503 10 -434 0 -500 -2 -520 -16z"/>
<path d="M3552 3334 c-22 -15 -22 -17 -22 -287 1 -222 3 -276 15 -291 14 -19
34 -19 575 -19 526 0 561 1 580 18 19 17 20 31 20 286 0 260 -3 304 -20 294
-5 -3 -11 -1 -15 5 -4 7 -195 10 -558 10 -484 0 -555 -2 -575 -16z"/>
<path d="M40 2650 c-19 -19 -20 -33 -20 -290 0 -257 1 -271 20 -290 19 -19 33
-20 535 -20 502 0 516 1 535 20 19 19 20 33 20 290 0 264 0 270 -22 290 -21
20 -32 20 -535 20 -500 0 -514 -1 -533 -20z"/>
<path d="M1230 2650 c-19 -19 -20 -33 -20 -290 0 -257 1 -271 20 -290 19 -19
33 -20 520 -20 l499 0 21 22 c19 21 20 34 20 288 0 254 -1 267 -20 288 l-21
22 -499 0 c-487 0 -501 -1 -520 -20z"/>
<path d="M2390 2650 c-19 -19 -20 -33 -20 -288 0 -256 1 -269 20 -290 l21 -22
499 0 499 0 21 22 c19 21 20 34 20 289 0 263 0 269 -22 289 -21 20 -32 20
-520 20 -485 0 -499 -1 -518 -20z"/>
<path d="M3550 2650 c-19 -19 -20 -33 -20 -290 0 -257 1 -271 20 -290 20 -20
33 -20 575 -20 542 0 555 0 575 20 19 19 20 33 20 290 0 257 -1 271 -20 290
-20 20 -33 20 -575 20 -542 0 -555 0 -575 -20z"/>
<path d="M70 1982 c-48 -7 -49 -18 -50 -307 0 -153 4 -276 10 -285 8 -13 80
-15 545 -15 465 0 537 2 545 15 6 8 10 133 10 287 0 297 -1 302 -58 304 -91 3
-981 3 -1002 1z"/>
<path d="M1247 1977 c-12 -4 -25 -13 -29 -20 -11 -18 -9 -549 2 -567 8 -13 78
-15 516 -18 444 -2 510 -1 530 13 l24 15 0 274 c0 260 -1 274 -20 291 -19 17
-52 18 -511 19 -269 1 -500 -3 -512 -7z"/>
<path d="M2410 1977 c0 -5 -4 -6 -9 -2 -25 15 -31 -44 -31 -304 0 -268 0 -270
22 -285 20 -14 86 -16 518 -16 432 0 498 2 518 16 22 15 22 18 22 284 0 147
-3 275 -6 284 -3 9 -12 16 -20 16 -8 0 -14 3 -14 8 0 4 -225 7 -500 7 -275 0
-500 -4 -500 -8z"/>
<path d="M3570 1978 c0 -5 -6 -8 -14 -8 -8 0 -17 -7 -20 -16 -10 -26 -7 -548
4 -564 8 -13 85 -15 576 -18 519 -2 568 -1 585 14 18 16 19 37 19 286 0 259
-6 318 -31 303 -5 -4 -9 -3 -9 2 0 4 -250 8 -555 8 -305 0 -555 -3 -555 -7z"/>
<path d="M42 1284 c-22 -15 -22 -17 -22 -288 0 -219 3 -276 14 -292 14 -18 31
-19 541 -19 510 0 527 1 541 19 11 16 14 73 14 292 l0 272 -25 16 c-22 14 -82
16 -532 16 -444 0 -511 -2 -531 -16z"/>
<path d="M1232 1284 c-22 -15 -22 -17 -22 -288 0 -219 3 -276 14 -292 14 -18
31 -19 522 -20 494 0 507 0 525 20 18 18 19 40 19 289 0 264 0 270 -22 288
-20 18 -47 19 -517 19 -433 0 -499 -2 -519 -16z"/>
<path d="M2392 1284 c-22 -15 -22 -17 -22 -287 1 -227 3 -275 16 -292 15 -20
27 -20 521 -21 493 0 506 0 524 20 18 18 19 41 19 292 l0 272 -25 16 c-21 14
-80 16 -517 16 -431 0 -496 -2 -516 -16z"/>
<path d="M3552 1284 c-22 -15 -22 -17 -22 -288 0 -219 3 -276 14 -292 14 -18
32 -19 577 -20 529 0 564 1 581 18 16 16 18 41 18 292 0 273 0 275 -22 290
-20 14 -91 16 -573 16 -482 0 -553 -2 -573 -16z"/>
<path d="M58 611 c-35 -10 -38 -31 -38 -307 0 -271 0 -273 22 -288 20 -14 142
-16 1113 -16 971 0 1093 2 1113 16 22 15 22 17 22 287 -1 226 -3 275 -16 292
-15 20 -28 20 -1109 20 -602 0 -1100 -2 -1107 -4z"/>
<path d="M2388 598 c-16 -16 -18 -44 -18 -289 0 -266 0 -272 22 -290 20 -18
47 -19 518 -19 471 0 498 1 518 19 22 18 22 24 22 290 0 260 -1 272 -20 289
-19 16 -60 17 -523 17 -466 0 -503 -1 -519 -17z"/>
<path d="M3548 598 c-16 -16 -18 -44 -18 -292 0 -273 0 -275 22 -290 20 -14
91 -16 573 -16 482 0 553 2 573 16 22 15 22 17 22 288 0 218 -3 276 -14 291
-14 19 -33 20 -577 20 -525 0 -565 -1 -581 -17z"/>
</g>
</svg>
