<svg version="1" xmlns="http://www.w3.org/2000/svg" width="629.333" height="629.333" viewBox="0 0 472.000000 472.000000"><path d="M2.2 1.6C0 3.1 0 3.3 0 30.4 0 52.3.3 58 1.4 59.6c1.4 1.9 5 1.9 234.2 1.9 229.6 0 232.8 0 234.6-1.9 1.6-1.8 1.8-4.3 1.8-29.2V3.2l-2.5-1.6C467.3.1 447 0 235.8 0 28 0 4.2.2 2.2 1.6zM1.8 70.2C.2 71.8 0 74.4 0 99.4c0 27.3 0 27.5 2.2 29 3.4 2.4 464.2 2.4 467.6 0 2.2-1.5 2.2-1.7 2.2-28.8 0-21.9-.3-27.6-1.4-29.2-1.4-1.9-5-1.9-234.2-1.9-222.6-.1-232.9 0-234.6 1.7zM3.7 138.8c-1.5 1.6-1.7 5.1-1.7 28.9 0 25.7.1 27.1 2 28.8 1.9 1.7 5.2 1.8 53.5 1.8 48.4 0 51.6-.1 53.5-1.8 1.9-1.7 2-3 2-28.6 0-26-.3-30.4-2-29.4-.5.3-1.1.1-1.5-.5-.4-.7-18.4-1-52.4-1-48.9 0-51.9.1-53.4 1.8zM123.2 138.6c-2.2 1.5-2.2 1.7-2.2 28.7.1 20.9.4 27.6 1.4 28.9.7 1 1.6 1.5 1.9 1.1.4-.3.7-.2.7.3 0 .8 96.6 1.1 100 .3 3.7-.9 3.9-2.8 4-30.6 0-27 0-27.2-2.2-28.7-2-1.4-8.6-1.6-51.8-1.6-43.2 0-49.8.2-51.8 1.6zM239.2 138.6c-2.2 1.5-2.2 1.7-2.2 28.7.1 22.2.3 27.6 1.5 29.1 1.4 1.9 3.3 1.9 52 1.9 47.4 0 50.6-.1 52.5-1.8 1.9-1.7 2-3.1 2-28.6 0-26-.3-30.4-2-29.4-.5.3-1.1.1-1.5-.5-.4-.7-17.7-1-50.3-1-43.4 0-50 .2-52 1.6zM355.2 138.6c-2.2 1.5-2.2 1.7-2.2 28.7.1 22.2.3 27.6 1.5 29.1 1.4 1.9 3.4 1.9 57.5 1.9 52.6 0 56.1-.1 58-1.8 1.9-1.7 2-3.1 2-28.6 0-26-.3-30.4-2-29.4-.5.3-1.1.1-1.5-.5-.4-.7-19.5-1-55.8-1-48.4 0-55.5.2-57.5 1.6zM4 207c-1.9 1.9-2 3.3-2 29s.1 27.1 2 29c1.9 1.9 3.3 2 53.5 2s51.6-.1 53.5-2c1.9-1.9 2-3.3 2-29 0-26.4 0-27-2.2-29-2.1-2-3.2-2-53.5-2-50 0-51.4.1-53.3 2zM123 207c-1.9 1.9-2 3.3-2 29s.1 27.1 2 29c1.9 1.9 3.3 2 52 2h49.9l2.1-2.2c1.9-2.1 2-3.4 2-28.8 0-25.4-.1-26.7-2-28.8l-2.1-2.2H175c-48.7 0-50.1.1-52 2zM239 207c-1.9 1.9-2 3.3-2 28.8 0 25.6.1 26.9 2 29l2.1 2.2h99.8l2.1-2.2c1.9-2.1 2-3.4 2-28.9 0-26.3 0-26.9-2.2-28.9-2.1-2-3.2-2-52-2-48.5 0-49.9.1-51.8 2zM355 207c-1.9 1.9-2 3.3-2 29s.1 27.1 2 29c2 2 3.3 2 57.5 2s55.5 0 57.5-2c1.9-1.9 2-3.3 2-29s-.1-27.1-2-29c-2-2-3.3-2-57.5-2s-55.5 0-57.5 2zM7 273.8c-4.8.7-4.9 1.8-5 30.7 0 15.3.4 27.6 1 28.5.8 1.3 8 1.5 54.5 1.5s53.7-.2 54.5-1.5c.6-.8 1-13.3 1-28.7 0-29.7-.1-30.2-5.8-30.4-9.1-.3-98.1-.3-100.2-.1zM124.7 274.3c-1.2.4-2.5 1.3-2.9 2-1.1 1.8-.9 54.9.2 56.7.8 1.3 7.8 1.5 51.6 1.8 44.4.2 51 .1 53-1.3l2.4-1.5v-27.4c0-26-.1-27.4-2-29.1-1.9-1.7-5.2-1.8-51.1-1.9-26.9-.1-50 .3-51.2.7zM241 274.3c0 .5-.4.6-.9.2-2.5-1.5-3.1 4.4-3.1 30.4 0 26.8 0 27 2.2 28.5 2 1.4 8.6 1.6 51.8 1.6 43.2 0 49.8-.2 51.8-1.6 2.2-1.5 2.2-1.8 2.2-28.4 0-14.7-.3-27.5-.6-28.4-.3-.9-1.2-1.6-2-1.6s-1.4-.3-1.4-.8c0-.4-22.5-.7-50-.7s-50 .4-50 .8zM357 274.2c0 .5-.6.8-1.4.8-.8 0-1.7.7-2 1.6-1 2.6-.7 54.8.4 56.4.8 1.3 8.5 1.5 57.6 1.8 51.9.2 56.8.1 58.5-1.4 1.8-1.6 1.9-3.7 1.9-28.6 0-25.9-.6-31.8-3.1-30.3-.5.4-.9.3-.9-.2 0-.4-25-.8-55.5-.8s-55.5.3-55.5.7zM4.2 343.6C2 345.1 2 345.3 2 372.4c0 21.9.3 27.6 1.4 29.2 1.4 1.8 3.1 1.9 54.1 1.9s52.7-.1 54.1-1.9c1.1-1.6 1.4-7.3 1.4-29.2v-27.2l-2.5-1.6c-2.2-1.4-8.2-1.6-53.2-1.6-44.4 0-51.1.2-53.1 1.6zM123.2 343.6c-2.2 1.5-2.2 1.7-2.2 28.8 0 21.9.3 27.6 1.4 29.2 1.4 1.8 3.1 1.9 52.2 2 49.4 0 50.7 0 52.5-2 1.8-1.8 1.9-4 1.9-28.9 0-26.4 0-27-2.2-28.8-2-1.8-4.7-1.9-51.7-1.9-43.3 0-49.9.2-51.9 1.6zM239.2 343.6c-2.2 1.5-2.2 1.7-2.2 28.7.1 22.7.3 27.5 1.6 29.2 1.5 2 2.7 2 52.1 2.1 49.3 0 50.6 0 52.4-2 1.8-1.8 1.9-4.1 1.9-29.2v-27.2l-2.5-1.6c-2.1-1.4-8-1.6-51.7-1.6-43.1 0-49.6.2-51.6 1.6zM355.2 343.6c-2.2 1.5-2.2 1.7-2.2 28.8 0 21.9.3 27.6 1.4 29.2 1.4 1.8 3.2 1.9 57.7 2 52.9 0 56.4-.1 58.1-1.8 1.6-1.6 1.8-4.1 1.8-29.2 0-27.3 0-27.5-2.2-29-2-1.4-9.1-1.6-57.3-1.6-48.2 0-55.3.2-57.3 1.6zM5.8 410.9c-3.5 1-3.8 3.1-3.8 30.7 0 27.1 0 27.3 2.2 28.8 2 1.4 14.2 1.6 111.3 1.6s109.3-.2 111.3-1.6c2.2-1.5 2.2-1.7 2.2-28.7-.1-22.6-.3-27.5-1.6-29.2-1.5-2-2.8-2-110.9-2-60.2 0-110 .2-110.7.4zM238.8 412.2c-1.6 1.6-1.8 4.4-1.8 28.9 0 26.6 0 27.2 2.2 29 2 1.8 4.7 1.9 51.8 1.9 47.1 0 49.8-.1 51.8-1.9 2.2-1.8 2.2-2.4 2.2-29 0-26-.1-27.2-2-28.9-1.9-1.6-6-1.7-52.3-1.7-46.6 0-50.3.1-51.9 1.7zM354.8 412.2c-1.6 1.6-1.8 4.4-1.8 29.2 0 27.3 0 27.5 2.2 29 2 1.4 9.1 1.6 57.3 1.6 48.2 0 55.3-.2 57.3-1.6 2.2-1.5 2.2-1.7 2.2-28.8 0-21.8-.3-27.6-1.4-29.1-1.4-1.9-3.3-2-57.7-2-52.5 0-56.5.1-58.1 1.7z"/></svg>