<?xml version="1.0" standalone="no"?>
<!DOCTYPE svg PUBLIC "-//W3C//DTD SVG 20010904//EN"
 "http://www.w3.org/TR/2001/REC-SVG-20010904/DTD/svg10.dtd">
<svg version="1.0" xmlns="http://www.w3.org/2000/svg"
 width="558.000000pt" height="558.000000pt" viewBox="0 0 558.000000 558.000000"
 preserveAspectRatio="xMidYMid meet">
<metadata>
Created by potrace 1.11, written by Peter Selinger 2001-2013
</metadata>
<g transform="translate(0.000000,558.000000) scale(0.100000,-0.100000)"
fill="#000000" stroke="none">
<path d="M0 2790 l0 -2790 2790 0 2790 0 0 2790 0 2790 -2790 0 -2790 0 0
-2790z m60 2767 c0 -2 -9 -12 -20 -22 -19 -18 -20 -17 -20 3 0 15 6 22 20 22
11 0 20 -2 20 -3z m5500 -889 l0 -891 -23 21 -23 22 -674 0 -674 0 -23 -22
-23 -21 0 -316 c0 -309 0 -315 22 -338 l21 -23 680 0 679 0 19 23 c18 22 18
22 19 -45 0 -68 0 -68 -20 -48 -20 20 -33 20 -700 20 -667 0 -680 0 -700 -20
-19 -19 -20 -33 -20 -344 0 -324 0 -325 22 -340 20 -14 103 -16 698 -16 595 0
678 2 698 16 l22 15 0 -63 c0 -59 -1 -61 -16 -40 l-15 22 -685 0 c-671 0 -684
0 -704 -20 -19 -19 -20 -33 -20 -344 0 -324 0 -325 22 -340 20 -14 103 -16
702 -16 618 0 681 1 698 17 17 15 18 14 18 -45 0 -62 0 -62 -20 -42 -20 20
-33 20 -700 20 -667 0 -680 0 -700 -20 -19 -19 -20 -33 -20 -344 0 -324 0
-325 22 -340 20 -14 103 -16 698 -16 595 0 678 2 698 16 l22 15 0 -60 c0 -61
0 -61 -20 -41 -20 20 -33 20 -700 20 -667 0 -680 0 -700 -20 -19 -19 -20 -33
-20 -344 0 -324 0 -325 22 -340 21 -15 19 -16 -41 -16 l-64 0 19 21 c18 20 19
41 20 338 1 303 0 317 -19 338 l-20 23 -611 0 -610 0 -23 -22 -23 -21 0 -316
c0 -309 0 -315 22 -338 l21 -23 -63 0 -63 0 20 23 c20 21 21 32 22 336 1 310
1 315 -21 338 l-21 23 -1303 0 -1302 0 -16 -25 c-14 -22 -17 -65 -17 -336 0
-265 3 -315 16 -335 15 -23 15 -24 -15 -24 l-30 0 0 2021 0 2020 22 -15 c20
-14 297 -16 2747 -16 2521 0 2726 1 2743 17 17 15 18 39 18 357 0 293 -2 345
-16 364 l-15 22 -2730 0 c-2716 0 -2729 0 -2749 -20 l-20 -20 0 67 0 66 23
-21 23 -22 2723 0 2723 0 19 23 c17 20 18 44 19 338 0 269 -2 318 -15 329 -21
17 -19 30 5 30 20 0 20 -7 20 -892z m0 -4633 c0 -9 -9 -15 -22 -15 -21 0 -21
0 -2 15 24 18 24 18 24 0z"/>
<path d="M66 3795 c-15 -22 -17 -64 -17 -340 1 -284 2 -316 18 -335 17 -20 26
-20 643 -20 l627 0 21 23 c21 22 21 29 21 337 0 307 0 315 -21 337 l-21 23
-628 0 -627 0 -16 -25z"/>
<path d="M1443 3798 c-20 -22 -21 -34 -21 -338 0 -304 1 -316 21 -337 l20 -23
612 0 612 0 20 23 c20 21 21 32 22 337 0 308 0 315 -21 337 l-21 23 -612 0
-612 0 -20 -22z"/>
<path d="M2792 3797 c-22 -23 -22 -29 -22 -338 l0 -316 23 -21 23 -22 611 0
c607 0 610 0 629 21 18 20 19 41 20 336 0 294 -1 317 -19 339 l-18 24 -613 0
-613 0 -21 -23z"/>
<path d="M65 3024 c-15 -23 -16 -61 -16 -335 0 -270 2 -312 17 -334 l16 -25
627 0 628 0 21 23 c22 23 22 29 22 337 0 308 -1 315 -22 337 l-21 23 -628 0
-627 0 -17 -26z"/>
<path d="M1443 3028 c-20 -22 -21 -35 -21 -338 0 -305 1 -316 21 -337 l20 -23
612 0 612 0 21 23 c20 21 21 30 21 337 0 307 0 315 -21 337 l-21 23 -612 0
-612 0 -20 -22z"/>
<path d="M2792 3027 c-22 -23 -22 -29 -22 -338 l0 -316 23 -21 23 -22 610 0
611 0 20 23 c19 21 20 34 19 338 -1 297 -2 318 -20 338 -19 21 -22 21 -631 21
l-612 0 -21 -23z"/>
<path d="M65 2256 c-24 -36 -24 -636 0 -672 l15 -24 628 0 629 0 21 23 c21 22
21 30 22 337 0 309 0 314 -22 337 l-21 23 -629 0 -628 0 -15 -24z"/>
<path d="M1443 2258 c-20 -22 -21 -33 -21 -338 0 -304 1 -316 21 -337 l20 -23
612 0 612 0 20 23 c21 21 21 32 21 337 1 306 0 316 -20 338 l-21 22 -612 0
-612 0 -20 -22z"/>
<path d="M2792 2257 c-22 -23 -22 -29 -22 -338 l0 -316 23 -21 23 -22 611 0
c607 0 610 0 629 21 18 20 19 41 20 338 1 304 0 317 -19 339 l-20 22 -612 0
-612 0 -21 -23z"/>
<path d="M66 1484 c-15 -22 -17 -62 -17 -339 1 -284 2 -316 18 -335 17 -20 26
-20 643 -20 l627 0 21 23 c22 23 22 29 22 338 l0 316 -23 21 -23 22 -626 0
-626 0 -16 -26z"/>
<path d="M1442 1488 c-20 -22 -21 -31 -20 -338 0 -303 1 -316 21 -337 l20 -23
612 0 612 0 21 22 c20 22 21 31 21 338 -1 306 -1 316 -22 338 l-20 22 -612 0
-612 0 -21 -22z"/>
<path d="M2792 1487 c-22 -23 -22 -29 -22 -338 l0 -316 23 -21 23 -22 611 0
c607 0 610 0 629 21 18 20 19 41 20 338 1 304 0 317 -19 339 l-20 22 -612 0
-612 0 -21 -23z"/>
</g>
</svg>
